<svg xmlns="http://www.w3.org/2000/svg" viewBox="0 0 512 512" width="64" height="64">
  <circle cx="256" cy="256" r="256" fill="#666"/>
  <path d="M245.3 426.7c-17.6 0-32-14.4-32-32s14.4-32 32-32 32 14.4 32 32-14.3 32-32 32zm32-130.2v34.1c0 5.9-4.8 10.7-10.7 10.7H224c-5.9 0-10.7-4.8-10.7-10.7v-53.3c0-23.5 19.1-42.7 42.7-42.7s42.7-19.1 42.7-42.7-19.1-42.7-42.7-42.7-42.7 19.1-42.7 42.7v10.7c0 5.9-4.8 10.7-10.7 10.7H160c-5.9 0-10.7-4.8-10.7-10.7V192c0-58.8 47.9-106.7 106.7-106.7S362.7 133.2 362.7 192c0 51.2-36.1 94.6-85.4 104.5z" fill="#fff"/>
</svg>
